# xmcd
#
# Track frame offsets:
# 150
# 27566
# 67846
# 109993
# 144135
# 167327
# 187663
# 203181
# 230597
# 247687
#
# Disc length: 3704 seconds
#
# Revision: 0
# Processed by: cddbd v1.5.1PL2 Copyright (c) Steve Scherf et al.
# Submitted via: Audion 3.0.2 (http://www.panic.com/audion/)
#
DISCID=760e760a
DTITLE=i - u
DYEAR=1900
DGENRE=
TTITLE0=l
TTITLE1=l
TTITLE2=l
TTITLE3=l
TTITLE4=l
TTITLE5=l
TTITLE6=l
TTITLE7=l
TTITLE8=l
TTITLE9=l
EXTD=
EXTT0=
EXTT1=
EXTT2=
EXTT3=
EXTT4=
EXTT5=
EXTT6=
EXTT7=
EXTT8=
EXTT9=
PLAYORDER=
